<svg xmlns="http://www.w3.org/2000/svg" version="1.1" xmlns:xlink="http://www.w3.org/1999/xlink" width="2000" height="317" viewBox="0 0 2000 317"><svg xml:space="preserve" width="2000" height="317" data-version="2" data-id="lg_C8tGSJ1GAdOi4gow2M" viewBox="0 0 589 317" x="0" y="0"><rect width="100%" height="100%" fill="transparent"></rect><rect width="588" height="316.4" x="-294" y="-158.2" fill="none" rx="0" ry="0" transform="translate(294.5 158.5)"></rect><path d="M59.07 242.63h50.86q7.66 0 12.03-4.1 4.38-4.1 4.38-9.57t-4.38-9.57q-4.37-4.1-12.03-4.1H59.07q-7.66 0-12.03 4.1-4.38 4.1-4.38 9.57t4.38 9.57q4.37 4.1 12.03 4.1m140 0h50.86q7.66 0 12.03-4.1 4.38-4.1 4.38-9.57t-4.38-9.57q-4.37-4.1-12.03-4.1h-50.86q-7.66 0-12.03 4.1-4.38 4.1-4.38 9.57t4.38 9.57q4.37 4.1 12.03 4.1m-140-35h50.86q7.66 0 12.03-4.1 4.38-4.1 4.38-9.57t-4.38-9.57q-4.37-4.1-12.03-4.1H59.07q-7.66 0-12.03 4.1-4.38 4.1-4.38 9.57t4.38 9.57q4.37 4.1 12.03 4.1m140 0h50.86q7.66 0 12.03-4.1 4.38-4.1 4.38-9.57t-4.38-9.57q-4.37-4.1-12.03-4.1h-50.86q-7.66 0-12.03 4.1-4.38 4.1-4.38 9.57t4.38 9.57q4.37 4.1 12.03 4.1m-140-35h50.86q7.66 0 12.03-4.1 4.38-4.1 4.38-9.57t-4.38-9.57q-4.37-4.1-12.03-4.1H59.07q-7.66 0-12.03 4.1-4.38 4.1-4.38 9.57t4.38 9.57q4.37 4.1 12.03 4.1m140 0h50.86q7.66 0 12.03-4.1 4.38-4.1 4.38-9.57t-4.38-9.57q-4.37-4.1-12.03-4.1h-50.86q-7.66 0-12.03 4.1-4.38 4.1-4.38 9.57t4.38 9.57q4.37 4.1 12.03 4.1m-140-35h190.86q7.66 0 12.03-4.1 4.38-4.1 4.38-9.57t-4.38-9.57q-4.37-4.1-12.03-4.1H59.07q-7.66 0-12.03 4.1-4.38 4.1-4.38 9.57t4.38 9.57q4.37 4.1 12.03 4.1m0-35h50.86q7.66 0 12.03-4.1 4.38-4.1 4.38-9.57t-4.38-9.57q-4.37-4.1-12.03-4.1H59.07q-7.66 0-12.03 4.1-4.38 4.1-4.38 9.57t4.38 9.57q4.37 4.1 12.03 4.1m140 0h50.86q7.66 0 12.03-4.1 4.38-4.1 4.38-9.57t-4.38-9.57q-4.37-4.1-12.03-4.1h-50.86q-7.66 0-12.03 4.1-4.38 4.1-4.38 9.57t4.38 9.57q4.37 4.1 12.03 4.1m-140-35h50.86q7.66 0 12.03-4.1 4.38-4.1 4.38-9.57t-4.38-9.57q-4.37-4.1-12.03-4.1H59.07q-7.66 0-12.03 4.1-4.38 4.1-4.38 9.57t4.38 9.57q4.37 4.1 12.03 4.1m140 0h50.86q7.66 0 12.03-4.1 4.38-4.1 4.38-9.57t-4.38-9.57q-4.37-4.1-12.03-4.1h-50.86q-7.66 0-12.03 4.1-4.38 4.1-4.38 9.57t4.38 9.57q4.37 4.1 12.03 4.1m-140-35h50.86q7.66 0 12.03-4.1 4.38-4.1 4.38-9.57t-4.38-9.57q-4.37-4.1-12.03-4.1H59.07q-7.66 0-12.03 4.1-4.38 4.1-4.38 9.57t4.38 9.57q4.37 4.1 12.03 4.1m140 0h50.86q7.66 0 12.03-4.1 4.38-4.1 4.38-9.57t-4.38-9.57q-4.37-4.1-12.03-4.1h-50.86q-7.66 0-12.03 4.1-4.38 4.1-4.38 9.57t4.38 9.57q4.37 4.1 12.03 4.1m140 210h50.86q7.66 0 12.03-4.1 4.38-4.1 4.38-9.57t-4.38-9.57q-4.37-4.1-12.03-4.1h-50.86q-7.66 0-12.03 4.1-4.38 4.1-4.38 9.57t4.38 9.57q4.37 4.1 12.03 4.1m140 0h50.86q7.66 0 12.03-4.1 4.38-4.1 4.38-9.57t-4.38-9.57q-4.37-4.1-12.03-4.1h-50.86q-7.66 0-12.03 4.1-4.38 4.1-4.38 9.57t4.38 9.57q4.37 4.1 12.03 4.1m-140-35h50.86q7.66 0 12.03-4.1 4.38-4.1 4.38-9.57t-4.38-9.57q-4.37-4.1-12.03-4.1h-50.86q-7.66 0-12.03 4.1-4.38 4.1-4.38 9.57t4.38 9.57q4.37 4.1 12.03 4.1m140 0h50.86q7.66 0 12.03-4.1 4.38-4.1 4.38-9.57t-4.38-9.57q-4.37-4.1-12.03-4.1h-50.86q-7.66 0-12.03 4.1-4.38 4.1-4.38 9.57t4.38 9.57q4.37 4.1 12.03 4.1m-140-35h50.86q7.66 0 12.03-4.1 4.38-4.1 4.38-9.57t-4.38-9.57q-4.37-4.1-12.03-4.1h-50.86q-7.66 0-12.03 4.1-4.38 4.1-4.38 9.57t4.38 9.57q4.37 4.1 12.03 4.1m140 0h50.86q7.66 0 12.03-4.1 4.38-4.1 4.38-9.57t-4.38-9.57q-4.37-4.1-12.03-4.1h-50.86q-7.66 0-12.03 4.1-4.38 4.1-4.38 9.57t4.38 9.57q4.37 4.1 12.03 4.1m-140-35h190.86q7.66 0 12.03-4.1 4.38-4.1 4.38-9.57t-4.38-9.57q-4.37-4.1-12.03-4.1H339.07q-7.66 0-12.03 4.1-4.38 4.1-4.38 9.57t4.38 9.57q4.37 4.1 12.03 4.1m0-35h50.86q7.66 0 12.03-4.1 4.38-4.1 4.38-9.57t-4.38-9.57q-4.37-4.1-12.03-4.1h-50.86q-7.66 0-12.03 4.1-4.38 4.1-4.38 9.57t4.38 9.57q4.37 4.1 12.03 4.1m140 0h50.86q7.66 0 12.03-4.1 4.38-4.1 4.38-9.57t-4.38-9.57q-4.37-4.1-12.03-4.1h-50.86q-7.66 0-12.03 4.1-4.38 4.1-4.38 9.57t4.38 9.57q4.37 4.1 12.03 4.1m-105-35h120.86q7.66 0 12.03-4.1 4.38-4.1 4.38-9.57t-4.38-9.57q-4.37-4.1-12.03-4.1H374.07q-7.66 0-12.03 4.1-4.38 4.1-4.38 9.57t4.38 9.57q4.37 4.1 12.03 4.1m35-35h50.86q7.66 0 12.03-4.1 4.38-4.1 4.38-9.57t-4.38-9.57q-4.37-4.1-12.03-4.1h-50.86q-7.66 0-12.03 4.1-4.38 4.1-4.38 9.57t4.38 9.57q4.37 4.1 12.03 4.1"></path></svg></svg>